{"title":"Safe Passage (1994) Susan Sarandon (DVDrip, very rare)opt.subs E","uid":5731663,"size":729526543,"categoryP":"video","categoryS":"movies","magnet":"?xt=urn:btih:af9ee625dfd30fa3fb55ca7de03783db71e551ef&amp;dn=Safe+Passage+%281994%29+Susan+Sarandon+%28DVDrip%2C+very+rare%29opt.subs+E&amp;tr=udp%3A%2F%2Ftracker.openbittorrent.com%3A80&amp;tr=udp%3A%2F%2Fopen.demonii.com%3A1337&amp;tr=udp%3A%2F%2Ftracker.coppersurfer.tk%3A6969&amp;tr=udp%3A%2F%2Fexodus.desync.com%3A6969","seeders":1,"leechers":1,"uploader":"Kuthumi","files":5,"time":1280674265,"description":" &lt;a href=&quot;http://www.imdb.com/title/tt0111054/&quot; rel=&quot;nofollow&quot; target=&quot;_NEW&quot;&gt;http://www.imdb.com/title/tt0111054/&lt;/a&gt;\n\nOptional subtitles in separate idx/sub files (Work in Windows Media Player etc., \nsee enclosed Note): English, Spanish (No more subs on the DVD.)\n\nCharming comedy drama about a mother with seven sons and her dysfunctional family. Everything seems to change with the news that one of the sons might have died in a terrorist attack in the Middle East.\n\nAlso noteworthy for being one of the first major films for Nick Stahl (then 15), Jason London (22), Robert Sean Leonard (25) and Matt Keeslar (22).\n\nVery strange that there never has been any torrent for this good drama.\n\nWidescreen DVDrip XviD 2-pass 720x368, great stereo sound AC3.\nRuns well in both my standalone DivX players.\n\nMediaInfo analysis:\nFormat/Info                      : Audio Video Interleave\nFile size                        : 694 MiB\nDuration                         : 1h 38mn\nOverall bit rate                 : 990 Kbps\n\nVideo\nID                               : 0\nFormat                           : MPEG-4 Visual\nFormat profile                   : Advanced Simple@L5\nFormat settings, BVOP            : Yes\nFormat settings, QPel            : No\nFormat settings, GMC             : No warppoints\nFormat settings, Matrix          : Default (H.263)\nMuxing mode                      : Packed bitstream\nCodec ID                         : XVID\nCodec ID/Hint                    : XviD\nDuration                         : 1h 38mn\nBit rate                         : 852 Kbps\nWidth                            : 720 pixels\nHeight                           : 368 pixels\nDisplay aspect ratio             : 1.957\nFrame rate                       : 23.976 fps\nColor space                      : YUV\nChroma subsampling               : 4:2:0\nBit depth                        : 8 bits\nScan type                        : Progressive\nBits/(Pixel*Frame)               : 0.134\nStream size                      : 598 MiB (86%)\nWriting library                  : XviD 1.2.1 (UTC 2008-12-04)\n\nAudio\nID                               : 1\nFormat                           : MPEG Audio\nFormat version                   : Version 1\nFormat profile                   : Layer 3\nMode                             : Joint stereo\nMode extension                   : MS Stereo\nCodec ID                         : 55\nCodec ID/Hint                    : MP3\nDuration                         : 1h 38mn\nBit rate mode                    : Constant\nBit rate                         : 128 Kbps\nChannel(s)                       : 2 channels\nSampling rate                    : 48.0 KHz\nStream size                      : 89.8 MiB (13%)\nAlignment                        : Aligned on interleaves\nInterleave, duration             : 42 ms (1.00 video frame)\nInterleave, preload duration     : 504 ms\nWriting library                  : LAME3.97 \n\nSource: NTSC IVTC retail (note that PAL/NTSC will give no problems for avi files)","torrent":{"xt":"urn:btih:af9ee625dfd30fa3fb55ca7de03783db71e551ef","amp;dn":"Safe+Passage+%281994%29+Susan+Sarandon+%28DVDrip%2C+very+rare%29opt.subs+E","amp;tr":["udp%3A%2F%2Ftracker.openbittorrent.com%3A80","udp%3A%2F%2Fopen.demonii.com%3A1337","udp%3A%2F%2Ftracker.coppersurfer.tk%3A6969","udp%3A%2F%2Fexodus.desync.com%3A6969"],"infoHash":"af9ee625dfd30fa3fb55ca7de03783db71e551ef","infoHashBuffer":{"type":"Buffer","data":[175,158,230,37,223,211,15,163,251,85,202,125,224,55,131,219,113,229,81,239]},"announce":[],"urlList":[]}}